<svg xmlns="http://www.w3.org/2000/svg" viewBox="0 0 50 50"><defs></defs><path d="M21.424 1.46a15.5 15.5 0 0 0-15.5 15.5 84.466 84.466 0 0 0 2 18.5s11 2 18.5-1 10.5-7.5 10.5-7.5v-10a15.5 15.5 0 0 0-15.5-15.5z" fill="#ffcc24"></path><path d="M21.424 1.46a15.5 15.5 0 0 0-15.5 15.5c0 .891.018 1.755.045 2.607a15.49 15.49 0 0 1 30.955.893v-3.5a15.5 15.5 0 0 0-15.5-15.5z" fill="#ffdd7d"></path><path d="M21.424 1.46a15.5 15.5 0 0 0-15.5 15.5 84.466 84.466 0 0 0 2 18.5s11 2 18.5-1 10.5-7.5 10.5-7.5v-10a15.5 15.5 0 0 0-15.5-15.5z" stroke="#45413c" stroke-linecap="round" stroke-linejoin="round" stroke-width="1.25px" fill="none"></path><path d="M33.924 40.96c0-8.008-4.477-14.5-10-14.5s-10 6.492-10 14.5c0 7 4.5 7.5 6.5 7.5s6 .064 6 0h5.5a2.006 2.006 0 0 0 2-2z" fill="#ff6196"></path><path d="M14.827 34.963a15.461 15.461 0 0 0 17.58-1.655c-1.766-4.106-4.9-6.848-8.483-6.848-4.046 0-7.524 3.492-9.097 8.503z" fill="#e0366f"></path><path d="M33.924 40.96c0-8.008-4.477-14.5-10-14.5s-10 6.492-10 14.5c0 7 4.5 7.5 6.5 7.5s6 .064 6 0h5.5a2.006 2.006 0 0 0 2-2z" stroke="#45413c" stroke-linecap="round" stroke-linejoin="round" stroke-width="1.25px" fill="none"></path><ellipse cx="26.856" cy="40.692" rx="9.107" ry="7.056" transform="rotate(-36.61 26.855 40.692)" fill="#ffffff"></ellipse><path d="M34.166 35.261c-2.18-2.935-6.854-3.208-10.758-.753a10.18 10.18 0 0 0 10.8 8.256c1.4-2.572 1.492-5.438-.042-7.503z" fill="#f0f0f0"></path><path d="M32.424 15.96a26.077 26.077 0 0 1-12.5-1.5s-1 7.5-7 10v5.454a15.48 15.48 0 0 0 19.5-2.037z" fill="#ffe500"></path><path d="M32.424 15.96a26.077 26.077 0 0 1-12.5-1.5s-1 7.5-7 10v5.454a15.48 15.48 0 0 0 19.5-2.037z" stroke="#45413c" stroke-linecap="round" stroke-linejoin="round" stroke-width="1.25px" fill="none"></path><circle cx="20.384" cy="21.58" r=".876" fill="#45413c"></circle><circle cx="25.632" cy="19.816" r=".876" fill="#45413c"></circle><path d="M22.375 24.533a1.914 1.914 0 0 0 2.035.541 2.161 2.161 0 0 0 1.283-1.67m-4.065 14.819c.613 2.926 2.616 7.777 8.074 9" stroke="#45413c" stroke-linecap="round" stroke-linejoin="round" stroke-width="1.25px" fill="none"></path><path d="m20.672 36.887.752 1.073s3.5 5 12 6" stroke="#45413c" stroke-linecap="round" stroke-linejoin="round" stroke-width="1.25px" fill="none"></path><ellipse cx="26.856" cy="40.692" rx="9.107" ry="7.056" transform="rotate(-36.61 26.855 40.692)" stroke="#45413c" stroke-linecap="round" stroke-linejoin="round" stroke-width="1.25px" fill="none"></ellipse><path d="M13.924 40.96c0 7 4.5 7.5 6.5 7.5s4.5-1 4.5-3-2-3-4.5-3h-3.5" fill="#ff6196" stroke="#45413c" stroke-linecap="round" stroke-linejoin="round" stroke-width="1.25px"></path><path d="M20.924 42.486v5.952c1.893-.151 4-1.141 4-2.978 0-1.86-1.742-2.846-4-2.974z" fill="#ffe500" stroke="#45413c" stroke-linecap="round" stroke-linejoin="round" stroke-width="1.25px"></path><path d="M43.157 34.871a1.828 1.828 0 0 0-.216-.11 8.49 8.49 0 0 0-13.9-8.926 1.761 1.761 0 0 0-.189-.151 2 2 0 0 0-2.161 3.366 2.066 2.066 0 0 0 .215.109 8.491 8.491 0 0 0 13.9 8.927 1.975 1.975 0 0 0 .189.15 2 2 0 1 0 2.162-3.365z" fill="#ffe500"></path><path d="M43.38 32.754a10.721 10.721 0 0 0-16.629-3.107q.07-.246.155-.49a1.887 1.887 0 0 1-.215-.109 2 2 0 0 1 2.161-3.366 1.9 1.9 0 0 1 .189.151 8.489 8.489 0 0 1 14.339 6.921" fill="#fff48c"></path><path d="M43.157 34.869a1.681 1.681 0 0 0-.216-.109 8.49 8.49 0 0 0-13.9-8.927 1.9 1.9 0 0 0-.189-.151 2 2 0 0 0-2.161 3.366 1.887 1.887 0 0 0 .215.109 8.491 8.491 0 0 0 13.9 8.927 1.975 1.975 0 0 0 .189.15 2 2 0 1 0 2.162-3.365z" stroke="#45413c" stroke-linecap="round" stroke-linejoin="round" stroke-width="1.25px" fill="none"></path><ellipse cx="34.673" cy="41.452" rx="2.952" ry="2.269" transform="rotate(-32.858 34.674 41.452)" fill="#ffe500" stroke="#45413c" stroke-linecap="round" stroke-linejoin="round" stroke-width="1.25px"></ellipse></svg>